# xmcd CD database file
#
# Track frame offsets:
#	150
#	29907
#	60912
#	72550
#	99827
#	126715
#	154175
#	186695
#	194880
#	233232
#	245207
#	268337
#
# Disc length: 4029 seconds
#
# Revision: 0
# Processed by: cddbd v1.4PL0 Copyright (c) Steve Scherf et al.
# Submitted via: CDex 1.50
#
DISCID=c90fbb0c
DTITLE=Inside out - Soleil
DYEAR=2001
DGENRE=Jazz
TTITLE0=Scojam
TTITLE1=Missing Pellos
TTITLE2=Intro du metro
TTITLE3=Metro de retard
TTITLE4=Mirabilis
TTITLE5=Phlegmatic
TTITLE6=Stigmatango
TTITLE7=Intro flute
TTITLE8=Njak njak
TTITLE9=Intro batterie
TTITLE10=P'tit coucou
TTITLE11=Idiosyncrasy
EXTD=YEAR: 2001
EXTT0=
EXTT1=
EXTT2=
EXTT3=
EXTT4=
EXTT5=
EXTT6=
EXTT7=
EXTT8=
EXTT9=
EXTT10=
EXTT11=
PLAYORDER=
